PathFileType	4	(X/Y/Z)	OpenSim_Sub06_EMGBaseline_Gyro.trc
DataRate	CameraRate	NumFrames	NumMarkers	Units	OrigDataRate	OrigDataStartFrame	OrigNumFrames
100	100	41	8	m	100	6203	8270
Frame#	Time	torso_imu_offset_imu	pelvis_imu_offset_imu	tibia_r_imu_offset_imu	femur_r_imu_offset_imu	tibia_l_imu_offset_imu	femur_l_imu_offset_imu	toes_r_imu_offset_imu	toes_l_imu_offset_imu
				X1	Y1	Z1	X2	Y2	Z2	X3	Y3	Z3	X4	Y4	Z4	X5	Y5	Z5	X6	Y6	Z6	X7	Y7	Z7	X8		Y8	Z8	

6203	62.02000000	-0.40619445	-0.21758064	-0.12637182	-0.05609255	0.11225928	0.10753403	-0.66847889	0.68552863	4.67480665	0.67801225	-0.18889004	-0.56629296	-0.01338317	0.04428450	0.61107973	-0.08602986	-0.12332436	0.96425101	-1.17476693	2.65381508	2.72433533	-0.03504777	-0.17295790	0.17595622
6204	62.03000000	-0.39374260	-0.20266994	-0.12318662	-0.01738196	0.05210062	0.10684424	-0.24300391	0.58582025	4.67446042	0.72617705	-0.11376605	-0.66661234	0.02897999	0.04940669	0.64097533	-0.13099421	-0.07452192	0.91432063	-0.88419314	2.12591635	3.10363835	-0.05791375	-0.20135541	0.19926118
6205	62.04000000	-0.35492648	-0.18583147	-0.12494717	0.01593501	-0.01975762	0.11255171	0.58108062	0.14084641	4.34041030	0.73160185	-0.01109052	-0.74738555	0.06326644	0.05073999	0.67232205	-0.15159546	-0.03805794	0.87801243	-0.57542539	1.61248389	3.40134074	-0.09085944	-0.23068384	0.22168149
6206	62.05000000	-0.32160791	-0.17272349	-0.11631653	0.06994395	-0.09005516	0.11910983	1.39773317	-0.36969462	3.84125135	0.65748031	0.12964975	-0.79722716	0.03956696	0.07752114	0.69990204	-0.14876000	-0.02041663	0.86643855	-0.38787971	1.27079786	3.64727218	-0.07860857	-0.25188861	0.22595201
6207	62.06000000	-0.28993340	-0.14761938	-0.10896448	0.08766122	-0.15462008	0.12786112	2.06107075	-0.56506672	3.47924956	0.61438421	0.24869158	-0.79098399	0.00882456	0.11065993	0.72443387	-0.10755167	-0.01704068	0.88488227	-0.27386688	1.04027872	3.83317203	-0.08222344	-0.28739109	0.22553642
6208	62.07000000	-0.24042175	-0.12401017	-0.09718905	0.08466348	-0.22750909	0.15049611	2.68206049	-0.35756403	3.26759989	0.59862514	0.26961825	-0.72086929	0.01974077	0.15479658	0.76330741	-0.06433183	-0.02564307	0.90857915	-0.19592290	0.60665698	4.02152498	-0.07954550	-0.33705762	0.21586875
6209	62.08000000	-0.21282728	-0.09343649	-0.08333304	0.05450650	-0.26592596	0.14477806	3.02720300	0.07827348	3.07864643	0.58948713	0.17373251	-0.62947155	0.00651896	0.16211555	0.81801087	-0.02807139	-0.03669921	0.91402007	-0.81466001	0.43171727	3.91661327	-0.11598394	-0.40005117	0.22102661
6210	62.09000000	-0.19654490	-0.04525781	-0.06598711	0.06251174	-0.27677200	0.12318303	2.71997794	0.25481137	2.72279039	0.53160935	0.05185974	-0.50994179	-0.03084682	0.18334195	0.87561634	0.03481448	-0.04905458	0.91150754	-0.26255523	0.63446970	3.42316588	-0.12844113	-0.44240248	0.23636548
6211	62.10000000	-0.17941674	0.00014630	-0.05587632	0.11919422	-0.25186994	0.10838582	1.14130623	0.43511867	2.35723846	0.36555684	-0.14662777	-0.38347739	-0.05425955	0.21134224	0.93961927	0.10202186	-0.05112331	0.89445857	0.51475259	0.87637875	2.79531358	-0.14786480	-0.48816053	0.26441197
6212	62.11000000	-0.14918255	0.05500321	-0.04602338	0.21070554	-0.20901132	0.10057659	0.02449846	0.62841471	2.03042532	0.28410847	-0.35292070	-0.26268614	-0.03988408	0.21761626	1.00702354	0.12998454	-0.05955895	0.86624935	1.13121744	0.94169577	2.22481988	-0.14808640	-0.52736498	0.29123267
6213	62.12000000	-0.11151354	0.10545000	-0.04298901	0.28800573	-0.15639757	0.09341102	0.19988486	0.30946322	1.63766022	0.26413350	-0.47713142	-0.11971553	0.02276344	0.24406149	1.09136302	0.13795796	-0.05633073	0.82330386	1.26648021	0.86760857	1.73296892	-0.18283975	-0.59600179	0.32459969
6214	62.13000000	-0.07890389	0.14427684	-0.04394695	0.32930358	-0.12514254	0.09003508	0.85806495	-0.26036002	1.15501352	0.14534629	-0.55699565	0.00637049	0.12618075	0.27932183	1.16039524	0.16415420	-0.03668220	0.76260404	0.80499350	0.65669812	1.31135691	-0.26212035	-0.68217600	0.36757434
6215	62.14000000	-0.05661783	0.16098716	-0.05294079	0.33163632	-0.10847555	0.08011593	1.13501452	-0.48402736	0.56430870	-0.06478002	-0.64537161	0.07543592	0.21962162	0.31247981	1.22166954	0.25931418	0.02050439	0.65694099	-0.12065487	0.34475421	0.91553355	-0.23747308	-0.75495205	0.38356646
6216	62.15000000	-0.03672353	0.18578660	-0.06588459	0.30004274	-0.11105741	0.05854060	0.53978533	-0.52421381	-0.05933508	-0.30438648	-0.72478539	0.08589522	0.28096080	0.34067224	1.29050645	0.39019331	0.10725486	0.54220848	-0.93380700	-0.05097761	0.44034169	-0.27152418	-0.85620241	0.41593680
6217	62.16000000	-0.01165018	0.22876936	-0.07855681	0.27464465	-0.11237197	0.03728925	-0.42940569	-0.52845334	-0.57359204	-0.51951881	-0.72934343	0.07490174	0.30091904	0.36469136	1.37666747	0.52697801	0.21178560	0.43869573	-1.35555178	-0.44877905	-0.12372143	-0.29357590	-0.94237467	0.44548603
6218	62.17000000	0.01149826	0.27724729	-0.09055671	0.28880283	-0.09751165	0.02351380	-0.98842428	-0.52594367	-0.95084908	-0.69286458	-0.59376137	0.09167197	0.29815275	0.36075114	1.46799986	0.64602051	0.31469738	0.37153070	-0.09792710	-1.08311778	-1.15804239	-0.32992022	-1.04503602	0.48188978
6219	62.18000000	0.05081033	0.34974512	-0.09441046	0.32394222	-0.09192252	0.01271965	-1.17823441	-0.56836409	-1.20234463	-0.83854446	-0.39576441	0.14426494	0.28084810	0.36164912	1.54775773	0.74270627	0.39124760	0.34461261	3.98244759	-2.19887293	-2.32122455	-0.34490007	-1.15155944	0.52065463
6220	62.19000000	0.08018374	0.43132309	-0.09178351	0.34435978	-0.11418248	0.00084777	-1.27216971	-0.72412466	-1.38759557	-0.95259611	-0.23928880	0.21467036	0.21776969	0.36196894	1.60161416	0.78699143	0.42794763	0.33628006	1.06483553	-2.29621140	-1.84107116	-0.33827907	-1.27770339	0.55961824
6221	62.20000000	0.11846055	0.49149614	-0.10462498	0.36807326	-0.16230778	0.03867124	-1.69471463	-1.00753772	-1.55283367	-1.00884114	-0.23227667	0.23641222	0.13562321	0.35177912	1.66758371	0.79469938	0.45254294	0.31957838	0.99847590	-1.27932706	-0.26163218	-0.36113268	-1.38490877	0.58906579
6222	62.21000000	0.16368310	0.52267679	-0.13640088	0.30216346	-0.30890948	0.11072015	-2.52408528	-1.33612876	-1.71449095	-1.11534676	-0.60794445	0.10452741	0.03672612	0.34898048	1.73209367	0.74786985	0.48638486	0.31143057	3.53421666	1.15644810	-0.47958273	-0.35314103	-1.59721128	0.61505810
6223	62.22000000	0.15279954	0.49572598	-0.17065892	0.08687483	-0.53509455	0.23554109	-3.68241221	-1.68887885	-1.57387302	-1.10160760	-1.21809156	-0.11711698	-0.06907860	0.35255750	1.82861718	0.59914472	0.51920461	0.26810758	-0.80358783	0.43083496	-1.51646121	-0.38331292	-1.87348649	0.62192056
6224	62.23000000	0.06514495	0.38581753	-0.20045925	-0.07693584	-0.60379874	0.47396306	-3.85804865	-1.32711109	-1.37644927	-0.73599206	-1.20505944	-0.37499512	-0.12218681	0.36377320	1.93793007	0.39131887	0.49651478	0.18528332	0.08912575	1.04193832	-0.30692262	-0.37265350	-2.18196907	0.68941507
6225	62.24000000	-0.01721284	0.34073393	-0.18456666	-0.22050096	-0.45571941	0.78817956	-1.68396040	-0.37211320	-1.58412781	-0.16573281	-0.25138040	-0.39883145	-0.12865114	0.31830965	2.06004902	0.13275289	0.39966551	0.10559231	0.53314684	-0.09580535	-0.28308425	-0.45290599	-2.51821406	0.81439735
6226	62.25000000	-0.07110627	0.38889683	-0.11496121	-0.66468317	-0.21208898	0.75903881	0.68926883	0.22713546	-1.90927522	0.01330527	0.41147481	-0.17260163	-0.13044047	0.17724443	2.18420185	-0.14009572	0.27039508	-0.07546638	-0.00768987	-0.01956135	-0.08562638	-0.41513168	-2.89548264	0.94837974
6227	62.26000000	-0.11255544	0.41304321	-0.11064951	-1.10469387	0.01060812	0.53870005	1.96628819	0.56825279	-1.93831404	-0.31213730	0.26749061	0.15619016	-0.07323701	-0.03199437	2.32166900	-0.33409272	0.20285174	-0.34877206	-0.18597648	-0.20824561	0.14377028	-0.55744427	-3.30303282	1.12115674
6228	62.27000000	-0.09416032	0.40152047	-0.16796634	-1.26262190	0.22632015	0.22448352	3.00283969	0.96729442	-1.91872140	-0.36667013	-0.17246263	0.35170466	0.10597509	-0.18523404	2.44556980	-0.36834497	0.32807877	-0.73847764	-0.34399947	-0.28956390	0.23844372	-0.71963502	-3.73548532	1.26265054
6229	62.28000000	-0.05657015	0.42412619	-0.15929189	-1.16530303	0.37612229	-0.11600300	3.40449456	0.79906458	-1.78093992	0.07033440	-0.33145637	0.26516827	0.40037053	-0.22246991	2.53106033	-0.20286919	0.61308250	-1.11261434	-0.31764907	-0.28136952	0.29885351	-0.73418874	-4.20210459	1.34359186
6230	62.29000000	0.02287762	0.40903650	-0.11261105	-0.80307961	0.35566565	-0.33170026	2.80938723	0.17742924	-1.41765169	0.49604498	-0.32432486	-0.15467904	0.75428495	-0.15724157	2.59881011	0.02697902	0.94491072	-1.42862558	-0.29380770	-0.26383600	0.25443019	-0.79068011	-4.67529120	1.42753631
6231	62.30000000	0.12628813	0.31782435	-0.04170054	-0.29127804	0.23804036	-0.39017856	2.22312774	-0.49977463	-1.16206407	0.50239113	-0.28076552	-0.70985375	1.07088827	-0.01071224	2.65653915	0.14754280	1.22394443	-1.68755822	-0.25862228	-0.20026989	0.19205125	-0.80285521	-5.04517180	1.54542179
6232	62.31000000	0.21253712	0.22891276	0.01054253	0.12958693	0.13670312	-0.32113685	1.69509507	-0.94741074	-0.89155286	0.03904337	-0.26466624	-1.11988418	1.20832362	0.13847621	2.70962367	0.15327055	1.42444927	-1.87687291	-0.21363587	-0.11041397	0.08959624	-0.81250464	-5.29688005	1.66319701
6233	62.32000000	0.30283247	0.19498719	0.02530242	0.44119575	0.08979236	-0.18473430	1.38996157	-0.88750159	-0.35833940	-0.60848719	-0.42114984	-1.23784721	1.15184226	0.20952135	2.73818059	0.03365399	1.54342806	-1.98704794	-0.14197077	0.01879432	-0.01415737	-0.45912431	-5.47531294	1.75210883
6234	62.33000000	0.39322008	0.18197827	0.01908150	0.64197664	0.10928573	-0.01207139	1.45015261	-0.44327934	0.01946273	-0.88041290	-0.74813924	-1.23152914	1.08672908	0.13005541	2.72574765	-0.19357358	1.52025874	-2.00024901	-0.11356053	0.11521957	-0.12239354	0.00992243	-5.66308262	1.84691976
6235	62.34000000	0.47006053	0.17309963	0.01660870	0.73756506	0.16456214	0.18142099	1.16701657	-0.23433982	-0.02964896	-0.80473817	-0.99696009	-1.32546784	1.15018888	-0.06939934	2.65209117	-0.38869562	1.40485937	-1.98582493	-0.00335257	0.14563841	-0.23676134	0.27317756	-5.62610592	1.94548136
6236	62.35000000	0.51351614	0.11839008	0.03184943	0.80152075	0.17264823	0.33752903	0.15566678	-0.36436946	-0.17733546	-0.57657910	-1.07404669	-1.34943304	1.36184602	-0.29009025	2.43821820	-0.38844037	1.27239542	-1.98595280	0.04388309	0.14779789	-0.24186304	0.78451793	-5.37210181	2.18459064
6237	62.36000000	0.53266024	0.02313464	0.05582510	0.83046625	0.10620675	0.43919558	-0.89846181	-0.40914764	-0.32830339	-0.18467201	-1.03606914	-1.19464323	1.69674478	-0.46974448	2.04437603	-0.25379984	1.13734183	-2.00636103	0.02131181	0.09987988	-0.17265204	0.57700334	-5.23737696	2.58147495
6238	62.37000000	0.54251595	-0.04106039	0.08213810	0.77437825	0.02189104	0.48030505	-1.46452534	-0.29420343	-0.58621850	0.18169710	-0.97730136	-1.02972563	1.95232961	-0.52405075	1.53105504	-0.05947608	0.99716151	-2.00298227	-0.04054744	0.04859368	-0.10917677	0.18563154	-5.18946771	2.93824632
6239	62.38000000	0.56653962	-0.09291525	0.11435057	0.64560908	0.00514561	0.48579061	-1.46664389	-0.20857766	-0.88003914	0.47831275	-0.93288235	-0.89986080	1.83678738	-0.41622679	1.02413890	0.15341829	0.89411918	-1.98754248	-0.07512470	-0.01625768	-0.07346470	0.26830902	-4.91010220	2.94344842
6240	62.39000000	0.58431774	-0.12216643	0.17374408	0.46690189	0.05786206	0.48893121	-1.08453702	-0.18959448	-0.95148298	0.67858537	-0.76648878	-0.88815652	1.40789722	-0.12204157	0.61314759	0.40165304	0.82785049	-2.01556109	-0.10281380	-0.05559633	-0.05701793	0.79875877	-4.01626537	2.86604724
6241	62.40000000	0.58633340	-0.08256099	0.22665585	0.31680840	0.15815368	0.43433898	-0.52226371	-0.20587650	-0.84194339	0.72117806	-0.49669991	-0.94117790	0.92305505	0.09090992	0.34211726	0.65439907	0.78435955	-2.09539843	-0.08093689	-0.10147340	-0.07027662	1.50226856	-2.13533341	2.42540037
6242	62.41000000	0.59001027	-0.04492026	0.27164028	0.24982798	0.19468025	0.25034449	0.19412292	-0.20971269	-0.58623613	0.60273437	-0.27689430	-0.95889710	0.65416024	0.02500935	0.22969878	0.90089375	0.73756248	-2.19605810	-0.06547452	-0.13205742	-0.07751491	1.30924078	2.65085826	0.75009424
6243	62.42000000	0.60758428	-0.08423994	0.30342981	0.26503706	0.22838817	0.03943807	0.97802476	-0.15745271	-0.32554954	0.35681945	-0.23310250	-0.89387245	0.56326886	-0.16768176	0.20359154	1.02384722	0.60956858	-2.24603790	-0.05184236	-0.18402344	-0.08615772	1.39443297	4.16771796	-0.00758196
